<?xml version="1.0" encoding="utf-8"?>
<!-- Generator: Adobe Illustrator 22.1.0, SVG Export Plug-In . SVG Version: 6.00 Build 0)  -->
<svg version="1.1" id="Layer_1" xmlns="http://www.w3.org/2000/svg" xmlns:xlink="http://www.w3.org/1999/xlink" x="0px" y="0px"
	 viewBox="0 0 496.5 161.7" style="enable-background:new 0 0 496.5 161.7;" xml:space="preserve">
<style type="text/css">
	.st0{fill:#00FFFF;}
	.st1{fill:url(#SVGID_1_);}
	.st2{fill:#171C28;}
	.st3{fill:url(#SVGID_2_);}
	.st4{fill:url(#SVGID_3_);}
	.st5{fill:#FFFFFF;}
	.st6{font-family:'LouisGeorgeCafe-Bold';}
	.st7{font-size:110.2388px;}
</style>
<g>
	<polygon class="st0" points="353.1,20.2 353.1,98.9 420.4,153.1 487.7,98.9 487.7,20.2 	"/>
	<linearGradient id="SVGID_1_" gradientUnits="userSpaceOnUse" x1="353.1385" y1="86.6451" x2="487.7115" y2="86.6451">
		<stop  offset="0" style="stop-color:#02FFFF"/>
		<stop  offset="1" style="stop-color:#71FFC3"/>
	</linearGradient>
	<polygon class="st1" points="353.1,20.2 353.1,98.9 420.4,153.1 487.7,98.9 487.7,20.2 	"/>
</g>
<g>
	<polygon class="st0" points="360.6,26.2 360.6,97.7 420.6,147.1 480.6,97.7 480.6,26.2 	"/>
	<polygon class="st2" points="360.6,26.2 360.6,97.7 420.6,147.1 480.6,97.7 480.6,26.2 	"/>
</g>
<linearGradient id="SVGID_2_" gradientUnits="userSpaceOnUse" x1="353.5975" y1="51.4464" x2="487.5425" y2="51.4464">
	<stop  offset="0" style="stop-color:#02FFFF"/>
	<stop  offset="1" style="stop-color:#71FFC3"/>
</linearGradient>
<path class="st3" d="M353.6,20.2c2.4,35,31.5,62.6,67,62.6s64.5-27.6,67-62.6H353.6z"/>
<path class="st2" d="M358.8,20.2c2.3,30.7,29.2,55,62,55s59.8-24.3,62-55H358.8z"/>
<linearGradient id="SVGID_3_" gradientUnits="userSpaceOnUse" x1="414.323" y1="62.6611" x2="426.817" y2="62.6611">
	<stop  offset="0" style="stop-color:#02FFFF"/>
	<stop  offset="1" style="stop-color:#71FFC3"/>
</linearGradient>
<circle class="st4" cx="420.6" cy="62.7" r="6.2"/>
<text transform="matrix(0.9449 0 0 1 11.0615 107.1866)" class="st5 st6 st7">Project</text>
</svg>
